<mxfile host="app.diagrams.net" modified="2020-08-17T09:50:31.973Z" agent="5.0 (Windows NT 10.0; Win64; x64) AppleWebKit/537.36 (KHTML, like Gecko) Chrome/84.0.4147.125 Safari/537.36" etag="lkE_3KNmJCP9B7djvEaO" version="13.6.2" type="github">
  <diagram id="uAj-lejeq4DFX5H2uq2S" name="第 1 页">
    <mxGraphModel dx="1955" dy="657" grid="1" gridSize="10" guides="1" tooltips="1" connect="1" arrows="1" fold="1" page="1" pageScale="1" pageWidth="827" pageHeight="1169" background="#FFFFFF" math="1" shadow="1">
      <root>
        <mxCell id="0" />
        <mxCell id="1" parent="0" />
        <mxCell id="4E8xfOPQsOfBrL4nCGdi-3" value="" style="edgeStyle=orthogonalEdgeStyle;orthogonalLoop=1;jettySize=auto;html=1;" parent="1" source="4E8xfOPQsOfBrL4nCGdi-1" target="4E8xfOPQsOfBrL4nCGdi-2" edge="1">
          <mxGeometry relative="1" as="geometry" />
        </mxCell>
        <mxCell id="PDQyfcMiIejeJpYEITO_-18" style="edgeStyle=orthogonalEdgeStyle;orthogonalLoop=1;jettySize=auto;html=1;entryX=0.5;entryY=1;entryDx=0;entryDy=0;dashed=1;" parent="1" source="4E8xfOPQsOfBrL4nCGdi-1" target="4E8xfOPQsOfBrL4nCGdi-4" edge="1">
          <mxGeometry relative="1" as="geometry">
            <Array as="points">
              <mxPoint x="650" y="300" />
              <mxPoint x="826" y="300" />
            </Array>
          </mxGeometry>
        </mxCell>
        <mxCell id="4E8xfOPQsOfBrL4nCGdi-1" value="AnnotatedGenericBeanDefinition" style="whiteSpace=wrap;html=1;rounded=1;" parent="1" vertex="1">
          <mxGeometry x="510" y="330" width="280" height="30" as="geometry" />
        </mxCell>
        <mxCell id="4E8xfOPQsOfBrL4nCGdi-8" value="" style="edgeStyle=orthogonalEdgeStyle;orthogonalLoop=1;jettySize=auto;html=1;" parent="1" source="4E8xfOPQsOfBrL4nCGdi-2" target="4E8xfOPQsOfBrL4nCGdi-7" edge="1">
          <mxGeometry relative="1" as="geometry" />
        </mxCell>
        <mxCell id="4E8xfOPQsOfBrL4nCGdi-2" value="GenericBeanDefinition" style="whiteSpace=wrap;html=1;rounded=1;" parent="1" vertex="1">
          <mxGeometry x="360" y="240" width="280" height="30" as="geometry" />
        </mxCell>
        <mxCell id="PDQyfcMiIejeJpYEITO_-17" style="edgeStyle=orthogonalEdgeStyle;orthogonalLoop=1;jettySize=auto;html=1;entryX=0.5;entryY=1;entryDx=0;entryDy=0;dashed=1;" parent="1" source="4E8xfOPQsOfBrL4nCGdi-4" target="4E8xfOPQsOfBrL4nCGdi-9" edge="1">
          <mxGeometry relative="1" as="geometry">
            <Array as="points">
              <mxPoint x="826" y="120" />
              <mxPoint x="670" y="120" />
            </Array>
          </mxGeometry>
        </mxCell>
        <mxCell id="4E8xfOPQsOfBrL4nCGdi-4" value="AnnotatedBeanDefinition" style="whiteSpace=wrap;html=1;rounded=1;" parent="1" vertex="1">
          <mxGeometry x="686" y="200" width="280" height="30" as="geometry" />
        </mxCell>
        <mxCell id="4E8xfOPQsOfBrL4nCGdi-10" value="" style="edgeStyle=orthogonalEdgeStyle;orthogonalLoop=1;jettySize=auto;html=1;" parent="1" source="4E8xfOPQsOfBrL4nCGdi-7" target="4E8xfOPQsOfBrL4nCGdi-9" edge="1">
          <mxGeometry relative="1" as="geometry" />
        </mxCell>
        <mxCell id="4E8xfOPQsOfBrL4nCGdi-7" value="AbstractBeanDefinition" style="whiteSpace=wrap;html=1;rounded=1;" parent="1" vertex="1">
          <mxGeometry x="360" y="170" width="280" height="30" as="geometry" />
        </mxCell>
        <mxCell id="4E8xfOPQsOfBrL4nCGdi-9" value="BeanDefinition" style="whiteSpace=wrap;html=1;rounded=1;" parent="1" vertex="1">
          <mxGeometry x="530" y="40" width="280" height="30" as="geometry" />
        </mxCell>
        <mxCell id="4E8xfOPQsOfBrL4nCGdi-12" value="" style="edgeStyle=orthogonalEdgeStyle;orthogonalLoop=1;jettySize=auto;html=1;" parent="1" source="4E8xfOPQsOfBrL4nCGdi-14" target="4E8xfOPQsOfBrL4nCGdi-16" edge="1">
          <mxGeometry relative="1" as="geometry" />
        </mxCell>
        <mxCell id="4E8xfOPQsOfBrL4nCGdi-13" style="edgeStyle=orthogonalEdgeStyle;orthogonalLoop=1;jettySize=auto;html=1;dashed=1;" parent="1" source="4E8xfOPQsOfBrL4nCGdi-14" target="4E8xfOPQsOfBrL4nCGdi-18" edge="1">
          <mxGeometry relative="1" as="geometry">
            <Array as="points">
              <mxPoint x="-60" y="310" />
              <mxPoint x="126" y="310" />
            </Array>
          </mxGeometry>
        </mxCell>
        <mxCell id="4E8xfOPQsOfBrL4nCGdi-14" value="ConfigurationClassBeanDefinition" style="whiteSpace=wrap;html=1;rounded=1;" parent="1" vertex="1">
          <mxGeometry x="-200" y="350" width="280" height="30" as="geometry" />
        </mxCell>
        <mxCell id="4E8xfOPQsOfBrL4nCGdi-15" value="" style="edgeStyle=orthogonalEdgeStyle;orthogonalLoop=1;jettySize=auto;html=1;" parent="1" source="4E8xfOPQsOfBrL4nCGdi-16" target="4E8xfOPQsOfBrL4nCGdi-20" edge="1">
          <mxGeometry relative="1" as="geometry" />
        </mxCell>
        <mxCell id="4E8xfOPQsOfBrL4nCGdi-16" value="RootBeanDefinition" style="whiteSpace=wrap;html=1;rounded=1;" parent="1" vertex="1">
          <mxGeometry x="-340" y="240" width="280" height="30" as="geometry" />
        </mxCell>
        <mxCell id="4E8xfOPQsOfBrL4nCGdi-17" style="edgeStyle=orthogonalEdgeStyle;orthogonalLoop=1;jettySize=auto;html=1;entryX=0.5;entryY=1;entryDx=0;entryDy=0;dashed=1;" parent="1" source="4E8xfOPQsOfBrL4nCGdi-18" target="4E8xfOPQsOfBrL4nCGdi-21" edge="1">
          <mxGeometry relative="1" as="geometry">
            <Array as="points">
              <mxPoint x="126" y="130" />
              <mxPoint x="-44" y="130" />
            </Array>
          </mxGeometry>
        </mxCell>
        <mxCell id="4E8xfOPQsOfBrL4nCGdi-18" value="AnnotatedBeanDefinition" style="whiteSpace=wrap;html=1;rounded=1;" parent="1" vertex="1">
          <mxGeometry x="-14" y="200" width="280" height="30" as="geometry" />
        </mxCell>
        <mxCell id="4E8xfOPQsOfBrL4nCGdi-19" value="" style="edgeStyle=orthogonalEdgeStyle;orthogonalLoop=1;jettySize=auto;html=1;" parent="1" source="4E8xfOPQsOfBrL4nCGdi-20" target="4E8xfOPQsOfBrL4nCGdi-21" edge="1">
          <mxGeometry relative="1" as="geometry" />
        </mxCell>
        <mxCell id="4E8xfOPQsOfBrL4nCGdi-20" value="AbstractBeanDefinition" style="whiteSpace=wrap;html=1;rounded=1;" parent="1" vertex="1">
          <mxGeometry x="-340" y="170" width="280" height="30" as="geometry" />
        </mxCell>
        <mxCell id="4E8xfOPQsOfBrL4nCGdi-21" value="BeanDefinition" style="whiteSpace=wrap;html=1;rounded=1;" parent="1" vertex="1">
          <mxGeometry x="-184" y="60" width="280" height="30" as="geometry" />
        </mxCell>
      </root>
    </mxGraphModel>
  </diagram>
</mxfile>
